# xmcd CD database file
#
# Track frame offsets:
#	150
#	18707
#	38877
#	52890
#	72897
#	87522
#	101113
#	103900
#	122024
#	141627
#	184297
#
# Disc length: 2704 seconds
#
# Revision: 0
# Processed by: cddbd v1.5.2PL0 Copyright (c) Steve Scherf et al.
# Submitted via: CDex 1.70beta2
#
DISCID=a50a8e0b
DTITLE=Jessie Evans - is it fire?
DYEAR=2009
DGENRE=Jazz
TTITLE0=is it fire?
TTITLE1=scientist of love
TTITLE2=blood and silver
TTITLE3=class magic
TTITLE4=let me on
TTITLE5=ninos del espacio
TTITLE6=micheladas
TTITLE7=golden snake
TTITLE8=black sand
TTITLE9=to the sun
TTITLE10=sera del fuego
EXTD=YEAR: 2009
EXTT0=
EXTT1=
EXTT2=
EXTT3=
EXTT4=
EXTT5=
EXTT6=
EXTT7=
EXTT8=
EXTT9=
EXTT10=
PLAYORDER=
